<svg width="96" height="96" viewBox="0 0 96 96" fill="none" xmlns="http://www.w3.org/2000/svg">
  <defs>
    <clipPath id="clip">
      <circle cx="48" cy="48" r="48" />
    </clipPath>
  </defs>
  <g clip-path="url(#clip)">
    <rect width="96" height="96" fill="#1A202A" />
    <circle cx="48" cy="39" r="18" fill="#8A6B62" />
    <path d="M20 90C24 72 36 61 48 61C60 61 72 72 76 90H20Z" fill="#2A313D" />
    <path d="M34 30C36 21 42 17 49 17C57 17 63 21 66 29C60 28 55 25 48 25C40 25 36 27 34 30Z" fill="#11161D" />
    <ellipse cx="40" cy="39" rx="2" ry="3" fill="#F4D6C6" />
    <ellipse cx="56" cy="39" rx="2" ry="3" fill="#F4D6C6" />
    <path d="M39 48C43 52 53 52 57 48" stroke="#4C322C" stroke-width="2" stroke-linecap="round" />
  </g>
</svg>
